ply
format ascii 1.0
comment Created by Open3D
element vertex 54
property double x
property double y
property double z
property double nx
property double ny
property double nz
property uchar red
property uchar green
property uchar blue
element face 54
property list uchar uint vertex_indices
end_header
-3.1 1.71 0 0.927785 -0.373116 0 128 128 255
6.58 2.58 0 -0.104606 -0.994514 0 128 128 255
6.9 -1.23 0 -0.959617 0.281309 0 128 128 255
3.95 -1.49 0 -0.276897 0.9609 0 128 128 255
4.02 -2.65 0 -0.412042 -0.911165 0 128 128 255
8.17 -2.27 0 0.587069 -0.809537 0 128 128 255
7.73 2.67 0 0.802166 -0.597101 0 128 128 255
16.53 3.43 0 -0.596897 -0.802318 0 128 128 255
17.99 -12.27 0 -0.891668 0.452689 0 128 128 255
-1.77 -14.04 0 0.00753372 0.999972 0 128 128 255
-2.07 -10.2 0 0.839075 -0.544016 0 128 128 255
3.84 -9.69 0 0.260658 -0.965431 0 128 128 255
3.65 -7.57 0 0.507138 0.861865 0 128 128 255
-2.36 -8.05 0 0.567733 0.823213 0 128 128 255
10.42 -6.03 0 -0.530779 0.84751 0 128 128 255
10.68 -9.06 0 -0.844797 -0.535087 0 128 128 255
13.84 -8.81 0 0.517028 -0.855968 0 128 128 255
13.48 -5.71 0 0.841178 0.540758 0 128 128 255
-3.1 1.71 3 0.525473 -0.85081 0 128 128 255
6.58 2.58 3 -0.54738 -0.836884 0 128 128 255
6.9 -1.23 3 -0.613058 0.790038 0 128 128 255
3.95 -1.49 3 -0.676318 0.73661 0 128 128 255
4.02 -2.65 3 -0.0477352 -0.99886 0 128 128 255
8.17 -2.27 3 0.952779 -0.303664 0 128 128 255
7.73 2.67 3 0.352318 -0.93588 0 128 128 255
16.53 3.43 3 -0.934004 -0.357263 0 128 128 255
17.99 -12.27 3 -0.451149 0.892449 0 128 128 255
-1.77 -14.04 3 0.278768 0.960358 0 128 128 255
-2.07 -10.2 3 0.388701 -0.921364 0 128 128 255
3.84 -9.69 3 0.651582 -0.758578 0 128 128 255
3.65 -7.57 3 0.0945782 0.995517 0 128 128 255
-2.36 -8.05 3 0.930585 0.366076 0 128 128 255
10.42 -6.03 3 -0.929078 0.369884 0 128 128 255
10.68 -9.06 3 -0.358884 -0.933382 0 128 128 255
13.84 -8.81 3 0.935312 -0.353823 0 128 128 255
13.48 -5.71 3 0.354915 0.934898 0 128 128 255
-3.1 1.71 0 0 0 1 171 84 0
6.58 2.58 0 0 0 1 171 84 0
6.9 -1.23 0 0 0 1 171 84 0
3.95 -1.49 0 0 0 1 171 84 0
4.02 -2.65 0 0 0 1 171 84 0
8.17 -2.27 0 0 0 1 171 84 0
7.73 2.67 0 0 0 1 171 84 0
16.53 3.43 0 0 0 1 171 84 0
17.99 -12.27 0 0 0 1 171 84 0
-1.77 -14.04 0 0 0 1 171 84 0
-2.07 -10.2 0 0 0 1 171 84 0
3.84 -9.69 0 0 0 1 171 84 0
3.65 -7.57 0 0 0 1 171 84 0
-2.36 -8.05 0 0 0 1 171 84 0
10.42 -6.03 0 0 0 1 171 84 0
10.68 -9.06 0 0 0 1 171 84 0
13.84 -8.81 0 0 0 1 171 84 0
13.48 -5.71 0 0 0 1 171 84 0
3 0 1 18
3 18 1 19
3 1 2 19
3 19 2 20
3 2 3 20
3 20 3 21
3 3 4 21
3 21 4 22
3 4 5 22
3 22 5 23
3 5 6 23
3 23 6 24
3 6 7 24
3 24 7 25
3 7 8 25
3 25 8 26
3 8 9 26
3 26 9 27
3 9 10 27
3 27 10 28
3 10 11 28
3 28 11 29
3 11 12 29
3 29 12 30
3 12 13 30
3 30 13 31
3 13 0 31
3 31 0 18
3 14 15 32
3 32 15 33
3 15 16 33
3 33 16 34
3 16 17 34
3 34 17 35
3 17 14 35
3 35 14 32
3 51 50 40
3 39 38 37
3 37 36 49
3 47 46 45
3 44 43 42
3 39 37 49
3 47 45 44
3 40 39 49
3 48 47 44
3 41 40 50
3 40 49 48
3 42 41 50
3 51 40 48
3 42 50 53
3 51 48 44
3 44 42 53
3 52 51 44
3 44 53 52
